%TF.GenerationSoftware,KiCad,Pcbnew,5.1.9+dfsg1-1~bpo10+1*%
%TF.CreationDate,2021-04-17T11:45:14+01:00*%
%TF.ProjectId,europower,6575726f-706f-4776-9572-2e6b69636164,rev?*%
%TF.SameCoordinates,Original*%
%TF.FileFunction,Paste,Top*%
%TF.FilePolarity,Positive*%
%FSLAX46Y46*%
G04 Gerber Fmt 4.6, Leading zero omitted, Abs format (unit mm)*
G04 Created by KiCad (PCBNEW 5.1.9+dfsg1-1~bpo10+1) date 2021-04-17 11:45:14*
%MOMM*%
%LPD*%
G01*
G04 APERTURE LIST*
G04 APERTURE END LIST*
%TO.C,F3*%
G36*
G01*
X138225000Y-110375000D02*
X138225000Y-111625000D01*
G75*
G02*
X137975000Y-111875000I-250000J0D01*
G01*
X137050000Y-111875000D01*
G75*
G02*
X136800000Y-111625000I0J250000D01*
G01*
X136800000Y-110375000D01*
G75*
G02*
X137050000Y-110125000I250000J0D01*
G01*
X137975000Y-110125000D01*
G75*
G02*
X138225000Y-110375000I0J-250000D01*
G01*
G37*
G36*
G01*
X141200000Y-110375000D02*
X141200000Y-111625000D01*
G75*
G02*
X140950000Y-111875000I-250000J0D01*
G01*
X140025000Y-111875000D01*
G75*
G02*
X139775000Y-111625000I0J250000D01*
G01*
X139775000Y-110375000D01*
G75*
G02*
X140025000Y-110125000I250000J0D01*
G01*
X140950000Y-110125000D01*
G75*
G02*
X141200000Y-110375000I0J-250000D01*
G01*
G37*
%TD*%
%TO.C,F2*%
G36*
G01*
X138237000Y-107625000D02*
X138237000Y-108875000D01*
G75*
G02*
X137987000Y-109125000I-250000J0D01*
G01*
X137062000Y-109125000D01*
G75*
G02*
X136812000Y-108875000I0J250000D01*
G01*
X136812000Y-107625000D01*
G75*
G02*
X137062000Y-107375000I250000J0D01*
G01*
X137987000Y-107375000D01*
G75*
G02*
X138237000Y-107625000I0J-250000D01*
G01*
G37*
G36*
G01*
X141212000Y-107625000D02*
X141212000Y-108875000D01*
G75*
G02*
X140962000Y-109125000I-250000J0D01*
G01*
X140037000Y-109125000D01*
G75*
G02*
X139787000Y-108875000I0J250000D01*
G01*
X139787000Y-107625000D01*
G75*
G02*
X140037000Y-107375000I250000J0D01*
G01*
X140962000Y-107375000D01*
G75*
G02*
X141212000Y-107625000I0J-250000D01*
G01*
G37*
%TD*%
%TO.C,F1*%
G36*
G01*
X138225000Y-104625000D02*
X138225000Y-105875000D01*
G75*
G02*
X137975000Y-106125000I-250000J0D01*
G01*
X137050000Y-106125000D01*
G75*
G02*
X136800000Y-105875000I0J250000D01*
G01*
X136800000Y-104625000D01*
G75*
G02*
X137050000Y-104375000I250000J0D01*
G01*
X137975000Y-104375000D01*
G75*
G02*
X138225000Y-104625000I0J-250000D01*
G01*
G37*
G36*
G01*
X141200000Y-104625000D02*
X141200000Y-105875000D01*
G75*
G02*
X140950000Y-106125000I-250000J0D01*
G01*
X140025000Y-106125000D01*
G75*
G02*
X139775000Y-105875000I0J250000D01*
G01*
X139775000Y-104625000D01*
G75*
G02*
X140025000Y-104375000I250000J0D01*
G01*
X140950000Y-104375000D01*
G75*
G02*
X141200000Y-104625000I0J-250000D01*
G01*
G37*
%TD*%
M02*
