M48
; DRILL file {KiCad 5.1.9+dfsg1-1~bpo10+1} date Sat Apr 17 11:45:12 2021
; FORMAT={2:4/ absolute / inch / suppress trailing zeros}
; #@! TF.CreationDate,2021-04-17T11:45:12+01:00
; #@! TF.GenerationSoftware,Kicad,Pcbnew,5.1.9+dfsg1-1~bpo10+1
; #@! TF.FileFunction,Plated,1,2,PTH
FMAT,2
INCH,LZ
T1C0.0157
T2C0.0295
T3C0.0315
T4C0.0354
T5C0.0394
%
G90
G05
T1
X057637Y-042717
T2
X054232Y-055807
X054732Y-055807
X055232Y-055807
X056594Y-055807
X057094Y-055807
X057594Y-055807
X058563Y-037689
X058563Y-038189
X058563Y-038689
X058563Y-040043
X058563Y-040543
X058563Y-041043
X058563Y-042406
X058563Y-042906
X058563Y-043406
X058941Y-055807
X059441Y-055807
X059941Y-055807
T3
X054232Y-068602
X054232Y-069602
X055783Y-068602
X055783Y-069602
X057333Y-068602
X057333Y-069602
X058268Y-031972
X058268Y-032972
X058268Y-035039
X058268Y-036039
X058883Y-068618
X058883Y-069618
X059449Y-031972
X059449Y-032972
X059449Y-035039
X059449Y-036039
X060433Y-045457
X060433Y-046457
X060433Y-047917
X060433Y-048917
X060433Y-058268
X060433Y-059268
X060433Y-061024
X060433Y-062024
X060433Y-063665
X060433Y-064665
X060433Y-068602
X060433Y-069602
X06063Y-031972
X06063Y-032972
X06063Y-035039
X06063Y-036039
X06063Y-03778
X06063Y-03878
X06063Y-040551
X06063Y-041551
T4
X054118Y-058563
X054134Y-053248
X054134Y-062205
X054134Y-065846
X054232Y-045965
X054232Y-049803
X055118Y-058563
X055134Y-053248
X055134Y-062205
X055134Y-065846
X055232Y-045965
X055232Y-049803
T5
X055018Y-033677
X055018Y-035677
X055018Y-037677
X055018Y-039677
X055118Y-032677
X055118Y-034677
X055118Y-036677
X055118Y-038677
X056018Y-033677
X056018Y-035677
X056018Y-037677
X056018Y-039677
X056118Y-032677
X056118Y-034677
X056118Y-036677
X056118Y-038677
X057071Y-058728
X057071Y-060728
X057071Y-062728
X057071Y-064728
X057169Y-046161
X057169Y-048161
X057169Y-050161
X057169Y-052161
X057171Y-059728
X057171Y-061728
X057171Y-063728
X057171Y-065728
X057269Y-047161
X057269Y-049161
X057269Y-051161
X057269Y-053161
X058071Y-058728
X058071Y-060728
X058071Y-062728
X058071Y-064728
X058169Y-046161
X058169Y-048161
X058169Y-050161
X058169Y-052161
X058171Y-059728
X058171Y-061728
X058171Y-063728
X058171Y-065728
X058269Y-047161
X058269Y-049161
X058269Y-051161
X058269Y-053161
T0
M30
