%TF.GenerationSoftware,KiCad,Pcbnew,5.1.9+dfsg1-1~bpo10+1*%
%TF.CreationDate,2021-04-17T11:45:14+01:00*%
%TF.ProjectId,europower,6575726f-706f-4776-9572-2e6b69636164,rev?*%
%TF.SameCoordinates,Original*%
%TF.FileFunction,Legend,Top*%
%TF.FilePolarity,Positive*%
%FSLAX46Y46*%
G04 Gerber Fmt 4.6, Leading zero omitted, Abs format (unit mm)*
G04 Created by KiCad (PCBNEW 5.1.9+dfsg1-1~bpo10+1) date 2021-04-17 11:45:14*
%MOMM*%
%LPD*%
G01*
G04 APERTURE LIST*
%ADD10C,0.150000*%
%ADD11C,0.120000*%
G04 APERTURE END LIST*
D10*
X137464285Y-145571428D02*
X138226190Y-145571428D01*
X137845238Y-145952380D02*
X137845238Y-145190476D01*
X139178571Y-144952380D02*
X138702380Y-144952380D01*
X138654761Y-145428571D01*
X138702380Y-145380952D01*
X138797619Y-145333333D01*
X139035714Y-145333333D01*
X139130952Y-145380952D01*
X139178571Y-145428571D01*
X139226190Y-145523809D01*
X139226190Y-145761904D01*
X139178571Y-145857142D01*
X139130952Y-145904761D01*
X139035714Y-145952380D01*
X138797619Y-145952380D01*
X138702380Y-145904761D01*
X138654761Y-145857142D01*
X139511904Y-144952380D02*
X139845238Y-145952380D01*
X140178571Y-144952380D01*
X136988095Y-155071428D02*
X137750000Y-155071428D01*
X137369047Y-155452380D02*
X137369047Y-154690476D01*
X138750000Y-155452380D02*
X138178571Y-155452380D01*
X138464285Y-155452380D02*
X138464285Y-154452380D01*
X138369047Y-154595238D01*
X138273809Y-154690476D01*
X138178571Y-154738095D01*
X139130952Y-154547619D02*
X139178571Y-154500000D01*
X139273809Y-154452380D01*
X139511904Y-154452380D01*
X139607142Y-154500000D01*
X139654761Y-154547619D01*
X139702380Y-154642857D01*
X139702380Y-154738095D01*
X139654761Y-154880952D01*
X139083333Y-155452380D01*
X139702380Y-155452380D01*
X139988095Y-154452380D02*
X140321428Y-155452380D01*
X140654761Y-154452380D01*
X136988095Y-164321428D02*
X137750000Y-164321428D01*
X138750000Y-164702380D02*
X138178571Y-164702380D01*
X138464285Y-164702380D02*
X138464285Y-163702380D01*
X138369047Y-163845238D01*
X138273809Y-163940476D01*
X138178571Y-163988095D01*
X139130952Y-163797619D02*
X139178571Y-163750000D01*
X139273809Y-163702380D01*
X139511904Y-163702380D01*
X139607142Y-163750000D01*
X139654761Y-163797619D01*
X139702380Y-163892857D01*
X139702380Y-163988095D01*
X139654761Y-164130952D01*
X139083333Y-164702380D01*
X139702380Y-164702380D01*
X139988095Y-163702380D02*
X140321428Y-164702380D01*
X140654761Y-163702380D01*
X136988095Y-132071428D02*
X137750000Y-132071428D01*
X138750000Y-132452380D02*
X138178571Y-132452380D01*
X138464285Y-132452380D02*
X138464285Y-131452380D01*
X138369047Y-131595238D01*
X138273809Y-131690476D01*
X138178571Y-131738095D01*
X139130952Y-131547619D02*
X139178571Y-131500000D01*
X139273809Y-131452380D01*
X139511904Y-131452380D01*
X139607142Y-131500000D01*
X139654761Y-131547619D01*
X139702380Y-131642857D01*
X139702380Y-131738095D01*
X139654761Y-131880952D01*
X139083333Y-132452380D01*
X139702380Y-132452380D01*
X139988095Y-131452380D02*
X140321428Y-132452380D01*
X140654761Y-131452380D01*
X137238095Y-123321428D02*
X138000000Y-123321428D01*
X137619047Y-123702380D02*
X137619047Y-122940476D01*
X139000000Y-123702380D02*
X138428571Y-123702380D01*
X138714285Y-123702380D02*
X138714285Y-122702380D01*
X138619047Y-122845238D01*
X138523809Y-122940476D01*
X138428571Y-122988095D01*
X139380952Y-122797619D02*
X139428571Y-122750000D01*
X139523809Y-122702380D01*
X139761904Y-122702380D01*
X139857142Y-122750000D01*
X139904761Y-122797619D01*
X139952380Y-122892857D01*
X139952380Y-122988095D01*
X139904761Y-123130952D01*
X139333333Y-123702380D01*
X139952380Y-123702380D01*
X140238095Y-122702380D02*
X140571428Y-123702380D01*
X140904761Y-122702380D01*
X137714285Y-113821428D02*
X138476190Y-113821428D01*
X138095238Y-114202380D02*
X138095238Y-113440476D01*
X139428571Y-113202380D02*
X138952380Y-113202380D01*
X138904761Y-113678571D01*
X138952380Y-113630952D01*
X139047619Y-113583333D01*
X139285714Y-113583333D01*
X139380952Y-113630952D01*
X139428571Y-113678571D01*
X139476190Y-113773809D01*
X139476190Y-114011904D01*
X139428571Y-114107142D01*
X139380952Y-114154761D01*
X139285714Y-114202380D01*
X139047619Y-114202380D01*
X138952380Y-114154761D01*
X138904761Y-114107142D01*
X139761904Y-113202380D02*
X140095238Y-114202380D01*
X140428571Y-113202380D01*
D11*
%TO.C,Q6*%
X148960000Y-143450000D02*
X152810000Y-143450000D01*
X152848611Y-143440122D02*
G75*
G03*
X148960000Y-143450000I-1948611J1690122D01*
G01*
%TO.C,Q5*%
X143000000Y-143450000D02*
X146850000Y-143450000D01*
X146888611Y-143440122D02*
G75*
G03*
X143000000Y-143450000I-1948611J1690122D01*
G01*
%TO.C,Q4*%
X137000000Y-143450000D02*
X140850000Y-143450000D01*
X140888611Y-143440122D02*
G75*
G03*
X137000000Y-143450000I-1948611J1690122D01*
G01*
%TO.C,Q3*%
X150450000Y-111000000D02*
X150450000Y-107150000D01*
X150440122Y-107111389D02*
G75*
G03*
X150450000Y-111000000I-1690122J-1948611D01*
G01*
%TO.C,Q2*%
X150450000Y-105000000D02*
X150450000Y-101150000D01*
X150440122Y-101111389D02*
G75*
G03*
X150450000Y-105000000I-1690122J-1948611D01*
G01*
%TO.C,Q1*%
X150450000Y-99020000D02*
X150450000Y-95170000D01*
X150440122Y-95131389D02*
G75*
G03*
X150450000Y-99020000I-1690122J-1948611D01*
G01*
%TO.C,D6*%
X137170000Y-149830000D02*
X137170000Y-149986000D01*
X137170000Y-147514000D02*
X137170000Y-147670000D01*
X139771130Y-149829837D02*
G75*
G02*
X137689039Y-149830000I-1041130J1079837D01*
G01*
X139771130Y-147670163D02*
G75*
G03*
X137689039Y-147670000I-1041130J-1079837D01*
G01*
X140402335Y-149828608D02*
G75*
G02*
X137170000Y-149985516I-1672335J1078608D01*
G01*
X140402335Y-147671392D02*
G75*
G03*
X137170000Y-147514484I-1672335J-1078608D01*
G01*
%TO.C,D5*%
X137210000Y-168330000D02*
X137210000Y-168486000D01*
X137210000Y-166014000D02*
X137210000Y-166170000D01*
X139811130Y-168329837D02*
G75*
G02*
X137729039Y-168330000I-1041130J1079837D01*
G01*
X139811130Y-166170163D02*
G75*
G03*
X137729039Y-166170000I-1041130J-1079837D01*
G01*
X140442335Y-168328608D02*
G75*
G02*
X137210000Y-168485516I-1672335J1078608D01*
G01*
X140442335Y-166171392D02*
G75*
G03*
X137210000Y-166014484I-1672335J-1078608D01*
G01*
%TO.C,D4*%
X137210000Y-159080000D02*
X137210000Y-159236000D01*
X137210000Y-156764000D02*
X137210000Y-156920000D01*
X139811130Y-159079837D02*
G75*
G02*
X137729039Y-159080000I-1041130J1079837D01*
G01*
X139811130Y-156920163D02*
G75*
G03*
X137729039Y-156920000I-1041130J-1079837D01*
G01*
X140442335Y-159078608D02*
G75*
G02*
X137210000Y-159235516I-1672335J1078608D01*
G01*
X140442335Y-156921392D02*
G75*
G03*
X137210000Y-156764484I-1672335J-1078608D01*
G01*
%TO.C,D3*%
X137460000Y-117830000D02*
X137460000Y-117986000D01*
X137460000Y-115514000D02*
X137460000Y-115670000D01*
X140061130Y-117829837D02*
G75*
G02*
X137979039Y-117830000I-1041130J1079837D01*
G01*
X140061130Y-115670163D02*
G75*
G03*
X137979039Y-115670000I-1041130J-1079837D01*
G01*
X140692335Y-117828608D02*
G75*
G02*
X137460000Y-117985516I-1672335J1078608D01*
G01*
X140692335Y-115671392D02*
G75*
G03*
X137460000Y-115514484I-1672335J-1078608D01*
G01*
%TO.C,D2*%
X137210000Y-136330000D02*
X137210000Y-136486000D01*
X137210000Y-134014000D02*
X137210000Y-134170000D01*
X139811130Y-136329837D02*
G75*
G02*
X137729039Y-136330000I-1041130J1079837D01*
G01*
X139811130Y-134170163D02*
G75*
G03*
X137729039Y-134170000I-1041130J-1079837D01*
G01*
X140442335Y-136328608D02*
G75*
G02*
X137210000Y-136485516I-1672335J1078608D01*
G01*
X140442335Y-134171392D02*
G75*
G03*
X137210000Y-134014484I-1672335J-1078608D01*
G01*
%TO.C,D1*%
X137460000Y-127580000D02*
X137460000Y-127736000D01*
X137460000Y-125264000D02*
X137460000Y-125420000D01*
X140061130Y-127579837D02*
G75*
G02*
X137979039Y-127580000I-1041130J1079837D01*
G01*
X140061130Y-125420163D02*
G75*
G03*
X137979039Y-125420000I-1041130J-1079837D01*
G01*
X140692335Y-127578608D02*
G75*
G02*
X137460000Y-127735516I-1672335J1078608D01*
G01*
X140692335Y-125421392D02*
G75*
G03*
X137460000Y-125264484I-1672335J-1078608D01*
G01*
%TO.C,U3*%
X151306000Y-137570000D02*
X142162000Y-137570000D01*
X142162000Y-137570000D02*
X142162000Y-114456000D01*
X142162000Y-114456000D02*
X151306000Y-114456000D01*
X151306000Y-114456000D02*
X151306000Y-137570000D01*
X151306000Y-128426000D02*
X150290000Y-128426000D01*
X150290000Y-128426000D02*
X150290000Y-124108000D01*
X150290000Y-124108000D02*
X151306000Y-124108000D01*
%TO.C,U2*%
X151056000Y-169490000D02*
X141912000Y-169490000D01*
X141912000Y-169490000D02*
X141912000Y-146376000D01*
X141912000Y-146376000D02*
X151056000Y-146376000D01*
X151056000Y-146376000D02*
X151056000Y-169490000D01*
X151056000Y-160346000D02*
X150040000Y-160346000D01*
X150040000Y-160346000D02*
X150040000Y-156028000D01*
X150040000Y-156028000D02*
X151056000Y-156028000D01*
%TO.C,F3*%
X139602064Y-111910000D02*
X138397936Y-111910000D01*
X139602064Y-110090000D02*
X138397936Y-110090000D01*
%TO.C,F2*%
X139614064Y-109160000D02*
X138409936Y-109160000D01*
X139614064Y-107340000D02*
X138409936Y-107340000D01*
%TO.C,F1*%
X139602064Y-106160000D02*
X138397936Y-106160000D01*
X139602064Y-104340000D02*
X138397936Y-104340000D01*
%TO.C,Q6*%
D10*
X150904761Y-138797619D02*
X150809523Y-138750000D01*
X150714285Y-138654761D01*
X150571428Y-138511904D01*
X150476190Y-138464285D01*
X150380952Y-138464285D01*
X150428571Y-138702380D02*
X150333333Y-138654761D01*
X150238095Y-138559523D01*
X150190476Y-138369047D01*
X150190476Y-138035714D01*
X150238095Y-137845238D01*
X150333333Y-137750000D01*
X150428571Y-137702380D01*
X150619047Y-137702380D01*
X150714285Y-137750000D01*
X150809523Y-137845238D01*
X150857142Y-138035714D01*
X150857142Y-138369047D01*
X150809523Y-138559523D01*
X150714285Y-138654761D01*
X150619047Y-138702380D01*
X150428571Y-138702380D01*
X151714285Y-137702380D02*
X151523809Y-137702380D01*
X151428571Y-137750000D01*
X151380952Y-137797619D01*
X151285714Y-137940476D01*
X151238095Y-138130952D01*
X151238095Y-138511904D01*
X151285714Y-138607142D01*
X151333333Y-138654761D01*
X151428571Y-138702380D01*
X151619047Y-138702380D01*
X151714285Y-138654761D01*
X151761904Y-138607142D01*
X151809523Y-138511904D01*
X151809523Y-138273809D01*
X151761904Y-138178571D01*
X151714285Y-138130952D01*
X151619047Y-138083333D01*
X151428571Y-138083333D01*
X151333333Y-138130952D01*
X151285714Y-138178571D01*
X151238095Y-138273809D01*
%TO.C,Q5*%
X144904761Y-138797619D02*
X144809523Y-138750000D01*
X144714285Y-138654761D01*
X144571428Y-138511904D01*
X144476190Y-138464285D01*
X144380952Y-138464285D01*
X144428571Y-138702380D02*
X144333333Y-138654761D01*
X144238095Y-138559523D01*
X144190476Y-138369047D01*
X144190476Y-138035714D01*
X144238095Y-137845238D01*
X144333333Y-137750000D01*
X144428571Y-137702380D01*
X144619047Y-137702380D01*
X144714285Y-137750000D01*
X144809523Y-137845238D01*
X144857142Y-138035714D01*
X144857142Y-138369047D01*
X144809523Y-138559523D01*
X144714285Y-138654761D01*
X144619047Y-138702380D01*
X144428571Y-138702380D01*
X145761904Y-137702380D02*
X145285714Y-137702380D01*
X145238095Y-138178571D01*
X145285714Y-138130952D01*
X145380952Y-138083333D01*
X145619047Y-138083333D01*
X145714285Y-138130952D01*
X145761904Y-138178571D01*
X145809523Y-138273809D01*
X145809523Y-138511904D01*
X145761904Y-138607142D01*
X145714285Y-138654761D01*
X145619047Y-138702380D01*
X145380952Y-138702380D01*
X145285714Y-138654761D01*
X145238095Y-138607142D01*
%TO.C,Q4*%
X138904761Y-138797619D02*
X138809523Y-138750000D01*
X138714285Y-138654761D01*
X138571428Y-138511904D01*
X138476190Y-138464285D01*
X138380952Y-138464285D01*
X138428571Y-138702380D02*
X138333333Y-138654761D01*
X138238095Y-138559523D01*
X138190476Y-138369047D01*
X138190476Y-138035714D01*
X138238095Y-137845238D01*
X138333333Y-137750000D01*
X138428571Y-137702380D01*
X138619047Y-137702380D01*
X138714285Y-137750000D01*
X138809523Y-137845238D01*
X138857142Y-138035714D01*
X138857142Y-138369047D01*
X138809523Y-138559523D01*
X138714285Y-138654761D01*
X138619047Y-138702380D01*
X138428571Y-138702380D01*
X139714285Y-138035714D02*
X139714285Y-138702380D01*
X139476190Y-137654761D02*
X139238095Y-138369047D01*
X139857142Y-138369047D01*
%TO.C,Q3*%
X152047619Y-109075238D02*
X152000000Y-109170476D01*
X151904761Y-109265714D01*
X151761904Y-109408571D01*
X151714285Y-109503809D01*
X151714285Y-109599047D01*
X151952380Y-109551428D02*
X151904761Y-109646666D01*
X151809523Y-109741904D01*
X151619047Y-109789523D01*
X151285714Y-109789523D01*
X151095238Y-109741904D01*
X151000000Y-109646666D01*
X150952380Y-109551428D01*
X150952380Y-109360952D01*
X151000000Y-109265714D01*
X151095238Y-109170476D01*
X151285714Y-109122857D01*
X151619047Y-109122857D01*
X151809523Y-109170476D01*
X151904761Y-109265714D01*
X151952380Y-109360952D01*
X151952380Y-109551428D01*
X150952380Y-108789523D02*
X150952380Y-108170476D01*
X151333333Y-108503809D01*
X151333333Y-108360952D01*
X151380952Y-108265714D01*
X151428571Y-108218095D01*
X151523809Y-108170476D01*
X151761904Y-108170476D01*
X151857142Y-108218095D01*
X151904761Y-108265714D01*
X151952380Y-108360952D01*
X151952380Y-108646666D01*
X151904761Y-108741904D01*
X151857142Y-108789523D01*
%TO.C,Q2*%
X152047619Y-103095238D02*
X152000000Y-103190476D01*
X151904761Y-103285714D01*
X151761904Y-103428571D01*
X151714285Y-103523809D01*
X151714285Y-103619047D01*
X151952380Y-103571428D02*
X151904761Y-103666666D01*
X151809523Y-103761904D01*
X151619047Y-103809523D01*
X151285714Y-103809523D01*
X151095238Y-103761904D01*
X151000000Y-103666666D01*
X150952380Y-103571428D01*
X150952380Y-103380952D01*
X151000000Y-103285714D01*
X151095238Y-103190476D01*
X151285714Y-103142857D01*
X151619047Y-103142857D01*
X151809523Y-103190476D01*
X151904761Y-103285714D01*
X151952380Y-103380952D01*
X151952380Y-103571428D01*
X151047619Y-102761904D02*
X151000000Y-102714285D01*
X150952380Y-102619047D01*
X150952380Y-102380952D01*
X151000000Y-102285714D01*
X151047619Y-102238095D01*
X151142857Y-102190476D01*
X151238095Y-102190476D01*
X151380952Y-102238095D01*
X151952380Y-102809523D01*
X151952380Y-102190476D01*
%TO.C,Q1*%
X152047619Y-97115238D02*
X152000000Y-97210476D01*
X151904761Y-97305714D01*
X151761904Y-97448571D01*
X151714285Y-97543809D01*
X151714285Y-97639047D01*
X151952380Y-97591428D02*
X151904761Y-97686666D01*
X151809523Y-97781904D01*
X151619047Y-97829523D01*
X151285714Y-97829523D01*
X151095238Y-97781904D01*
X151000000Y-97686666D01*
X150952380Y-97591428D01*
X150952380Y-97400952D01*
X151000000Y-97305714D01*
X151095238Y-97210476D01*
X151285714Y-97162857D01*
X151619047Y-97162857D01*
X151809523Y-97210476D01*
X151904761Y-97305714D01*
X151952380Y-97400952D01*
X151952380Y-97591428D01*
X151952380Y-96210476D02*
X151952380Y-96781904D01*
X151952380Y-96496190D02*
X150952380Y-96496190D01*
X151095238Y-96591428D01*
X151190476Y-96686666D01*
X151238095Y-96781904D01*
%TO.C,F3*%
X142448071Y-111333333D02*
X142448071Y-111666666D01*
X142971880Y-111666666D02*
X141971880Y-111666666D01*
X141971880Y-111190476D01*
X141971880Y-110904761D02*
X141971880Y-110285714D01*
X142352833Y-110619047D01*
X142352833Y-110476190D01*
X142400452Y-110380952D01*
X142448071Y-110333333D01*
X142543309Y-110285714D01*
X142781404Y-110285714D01*
X142876642Y-110333333D01*
X142924261Y-110380952D01*
X142971880Y-110476190D01*
X142971880Y-110761904D01*
X142924261Y-110857142D01*
X142876642Y-110904761D01*
%TO.C,F2*%
X142206071Y-108583333D02*
X142206071Y-108916666D01*
X142729880Y-108916666D02*
X141729880Y-108916666D01*
X141729880Y-108440476D01*
X141825119Y-108107142D02*
X141777500Y-108059523D01*
X141729880Y-107964285D01*
X141729880Y-107726190D01*
X141777500Y-107630952D01*
X141825119Y-107583333D01*
X141920357Y-107535714D01*
X142015595Y-107535714D01*
X142158452Y-107583333D01*
X142729880Y-108154761D01*
X142729880Y-107535714D01*
%TO.C,F1*%
X142178571Y-105583333D02*
X142178571Y-105916666D01*
X142702380Y-105916666D02*
X141702380Y-105916666D01*
X141702380Y-105440476D01*
X142702380Y-104535714D02*
X142702380Y-105107142D01*
X142702380Y-104821428D02*
X141702380Y-104821428D01*
X141845238Y-104916666D01*
X141940476Y-105011904D01*
X141988095Y-105107142D01*
%TD*%
M02*
