%TF.GenerationSoftware,KiCad,Pcbnew,5.1.9+dfsg1-1~bpo10+1*%
%TF.CreationDate,2021-04-17T11:45:14+01:00*%
%TF.ProjectId,europower,6575726f-706f-4776-9572-2e6b69636164,rev?*%
%TF.SameCoordinates,Original*%
%TF.FileFunction,Copper,L1,Top*%
%TF.FilePolarity,Positive*%
%FSLAX46Y46*%
G04 Gerber Fmt 4.6, Leading zero omitted, Abs format (unit mm)*
G04 Created by KiCad (PCBNEW 5.1.9+dfsg1-1~bpo10+1) date 2021-04-17 11:45:14*
%MOMM*%
%LPD*%
G01*
G04 APERTURE LIST*
%TA.AperFunction,NonConductor*%
%ADD10C,0.300000*%
%TD*%
%TA.AperFunction,ComponentPad*%
%ADD11R,1.050000X1.500000*%
%TD*%
%TA.AperFunction,ComponentPad*%
%ADD12R,1.500000X1.050000*%
%TD*%
%TA.AperFunction,ComponentPad*%
%ADD13O,1.600000X1.600000*%
%TD*%
%TA.AperFunction,ComponentPad*%
%ADD14C,1.600000*%
%TD*%
%TA.AperFunction,ComponentPad*%
%ADD15C,1.800000*%
%TD*%
%TA.AperFunction,ComponentPad*%
%ADD16R,1.800000X1.800000*%
%TD*%
%TA.AperFunction,ComponentPad*%
%ADD17C,1.700000*%
%TD*%
%TA.AperFunction,ViaPad*%
%ADD18C,0.800000*%
%TD*%
%TA.AperFunction,Conductor*%
%ADD19C,0.250000*%
%TD*%
G04 APERTURE END LIST*
D10*
X148607142Y-66367857D02*
X149107142Y-66367857D01*
X149321428Y-67153571D02*
X148607142Y-67153571D01*
X148607142Y-65653571D01*
X149321428Y-65653571D01*
X149964285Y-65653571D02*
X149964285Y-66867857D01*
X150035714Y-67010714D01*
X150107142Y-67082142D01*
X150250000Y-67153571D01*
X150535714Y-67153571D01*
X150678571Y-67082142D01*
X150750000Y-67010714D01*
X150821428Y-66867857D01*
X150821428Y-65653571D01*
X152392857Y-67153571D02*
X151892857Y-66439285D01*
X151535714Y-67153571D02*
X151535714Y-65653571D01*
X152107142Y-65653571D01*
X152250000Y-65725000D01*
X152321428Y-65796428D01*
X152392857Y-65939285D01*
X152392857Y-66153571D01*
X152321428Y-66296428D01*
X152250000Y-66367857D01*
X152107142Y-66439285D01*
X151535714Y-66439285D01*
X153321428Y-65653571D02*
X153607142Y-65653571D01*
X153750000Y-65725000D01*
X153892857Y-65867857D01*
X153964285Y-66153571D01*
X153964285Y-66653571D01*
X153892857Y-66939285D01*
X153750000Y-67082142D01*
X153607142Y-67153571D01*
X153321428Y-67153571D01*
X153178571Y-67082142D01*
X153035714Y-66939285D01*
X152964285Y-66653571D01*
X152964285Y-66153571D01*
X153035714Y-65867857D01*
X153178571Y-65725000D01*
X153321428Y-65653571D01*
X147785714Y-69703571D02*
X147785714Y-68203571D01*
X148357142Y-68203571D01*
X148500000Y-68275000D01*
X148571428Y-68346428D01*
X148642857Y-68489285D01*
X148642857Y-68703571D01*
X148571428Y-68846428D01*
X148500000Y-68917857D01*
X148357142Y-68989285D01*
X147785714Y-68989285D01*
X149571428Y-68203571D02*
X149857142Y-68203571D01*
X150000000Y-68275000D01*
X150142857Y-68417857D01*
X150214285Y-68703571D01*
X150214285Y-69203571D01*
X150142857Y-69489285D01*
X150000000Y-69632142D01*
X149857142Y-69703571D01*
X149571428Y-69703571D01*
X149428571Y-69632142D01*
X149285714Y-69489285D01*
X149214285Y-69203571D01*
X149214285Y-68703571D01*
X149285714Y-68417857D01*
X149428571Y-68275000D01*
X149571428Y-68203571D01*
X150714285Y-68203571D02*
X151071428Y-69703571D01*
X151357142Y-68632142D01*
X151642857Y-69703571D01*
X152000000Y-68203571D01*
X152571428Y-68917857D02*
X153071428Y-68917857D01*
X153285714Y-69703571D02*
X152571428Y-69703571D01*
X152571428Y-68203571D01*
X153285714Y-68203571D01*
X154785714Y-69703571D02*
X154285714Y-68989285D01*
X153928571Y-69703571D02*
X153928571Y-68203571D01*
X154500000Y-68203571D01*
X154642857Y-68275000D01*
X154714285Y-68346428D01*
X154785714Y-68489285D01*
X154785714Y-68703571D01*
X154714285Y-68846428D01*
X154642857Y-68917857D01*
X154500000Y-68989285D01*
X153928571Y-68989285D01*
D11*
%TO.P,Q6,1*%
%TO.N,GND*%
X149710000Y-141750000D03*
%TO.P,Q6,3*%
%TO.N,Net-(Q6-Pad3)*%
%TA.AperFunction,ComponentPad*%
G36*
G01*
X151725000Y-142237500D02*
X151725000Y-141262500D01*
G75*
G02*
X151987500Y-141000000I262500J0D01*
G01*
X152512500Y-141000000D01*
G75*
G02*
X152775000Y-141262500I0J-262500D01*
G01*
X152775000Y-142237500D01*
G75*
G02*
X152512500Y-142500000I-262500J0D01*
G01*
X151987500Y-142500000D01*
G75*
G02*
X151725000Y-142237500I0J262500D01*
G01*
G37*
%TD.AperFunction*%
%TO.P,Q6,2*%
%TO.N,Net-(Q6-Pad2)*%
%TA.AperFunction,ComponentPad*%
G36*
G01*
X150455000Y-142237500D02*
X150455000Y-141262500D01*
G75*
G02*
X150717500Y-141000000I262500J0D01*
G01*
X151242500Y-141000000D01*
G75*
G02*
X151505000Y-141262500I0J-262500D01*
G01*
X151505000Y-142237500D01*
G75*
G02*
X151242500Y-142500000I-262500J0D01*
G01*
X150717500Y-142500000D01*
G75*
G02*
X150455000Y-142237500I0J262500D01*
G01*
G37*
%TD.AperFunction*%
%TD*%
%TO.P,Q5,1*%
%TO.N,GND*%
X143750000Y-141750000D03*
%TO.P,Q5,3*%
%TO.N,Net-(Q5-Pad3)*%
%TA.AperFunction,ComponentPad*%
G36*
G01*
X145765000Y-142237500D02*
X145765000Y-141262500D01*
G75*
G02*
X146027500Y-141000000I262500J0D01*
G01*
X146552500Y-141000000D01*
G75*
G02*
X146815000Y-141262500I0J-262500D01*
G01*
X146815000Y-142237500D01*
G75*
G02*
X146552500Y-142500000I-262500J0D01*
G01*
X146027500Y-142500000D01*
G75*
G02*
X145765000Y-142237500I0J262500D01*
G01*
G37*
%TD.AperFunction*%
%TO.P,Q5,2*%
%TO.N,Net-(Q5-Pad2)*%
%TA.AperFunction,ComponentPad*%
G36*
G01*
X144495000Y-142237500D02*
X144495000Y-141262500D01*
G75*
G02*
X144757500Y-141000000I262500J0D01*
G01*
X145282500Y-141000000D01*
G75*
G02*
X145545000Y-141262500I0J-262500D01*
G01*
X145545000Y-142237500D01*
G75*
G02*
X145282500Y-142500000I-262500J0D01*
G01*
X144757500Y-142500000D01*
G75*
G02*
X144495000Y-142237500I0J262500D01*
G01*
G37*
%TD.AperFunction*%
%TD*%
%TO.P,Q4,1*%
%TO.N,GND*%
X137750000Y-141750000D03*
%TO.P,Q4,3*%
%TO.N,Net-(Q4-Pad3)*%
%TA.AperFunction,ComponentPad*%
G36*
G01*
X139765000Y-142237500D02*
X139765000Y-141262500D01*
G75*
G02*
X140027500Y-141000000I262500J0D01*
G01*
X140552500Y-141000000D01*
G75*
G02*
X140815000Y-141262500I0J-262500D01*
G01*
X140815000Y-142237500D01*
G75*
G02*
X140552500Y-142500000I-262500J0D01*
G01*
X140027500Y-142500000D01*
G75*
G02*
X139765000Y-142237500I0J262500D01*
G01*
G37*
%TD.AperFunction*%
%TO.P,Q4,2*%
%TO.N,Net-(Q4-Pad2)*%
%TA.AperFunction,ComponentPad*%
G36*
G01*
X138495000Y-142237500D02*
X138495000Y-141262500D01*
G75*
G02*
X138757500Y-141000000I262500J0D01*
G01*
X139282500Y-141000000D01*
G75*
G02*
X139545000Y-141262500I0J-262500D01*
G01*
X139545000Y-142237500D01*
G75*
G02*
X139282500Y-142500000I-262500J0D01*
G01*
X138757500Y-142500000D01*
G75*
G02*
X138495000Y-142237500I0J262500D01*
G01*
G37*
%TD.AperFunction*%
%TD*%
D12*
%TO.P,Q3,1*%
%TO.N,GND*%
X148750000Y-110250000D03*
%TO.P,Q3,3*%
%TO.N,Net-(Q3-Pad3)*%
%TA.AperFunction,ComponentPad*%
G36*
G01*
X149237500Y-108235000D02*
X148262500Y-108235000D01*
G75*
G02*
X148000000Y-107972500I0J262500D01*
G01*
X148000000Y-107447500D01*
G75*
G02*
X148262500Y-107185000I262500J0D01*
G01*
X149237500Y-107185000D01*
G75*
G02*
X149500000Y-107447500I0J-262500D01*
G01*
X149500000Y-107972500D01*
G75*
G02*
X149237500Y-108235000I-262500J0D01*
G01*
G37*
%TD.AperFunction*%
%TO.P,Q3,2*%
%TO.N,Net-(Q3-Pad2)*%
%TA.AperFunction,ComponentPad*%
G36*
G01*
X149237500Y-109505000D02*
X148262500Y-109505000D01*
G75*
G02*
X148000000Y-109242500I0J262500D01*
G01*
X148000000Y-108717500D01*
G75*
G02*
X148262500Y-108455000I262500J0D01*
G01*
X149237500Y-108455000D01*
G75*
G02*
X149500000Y-108717500I0J-262500D01*
G01*
X149500000Y-109242500D01*
G75*
G02*
X149237500Y-109505000I-262500J0D01*
G01*
G37*
%TD.AperFunction*%
%TD*%
%TO.P,Q2,1*%
%TO.N,GND*%
X148750000Y-104250000D03*
%TO.P,Q2,3*%
%TO.N,Net-(Q2-Pad3)*%
%TA.AperFunction,ComponentPad*%
G36*
G01*
X149237500Y-102235000D02*
X148262500Y-102235000D01*
G75*
G02*
X148000000Y-101972500I0J262500D01*
G01*
X148000000Y-101447500D01*
G75*
G02*
X148262500Y-101185000I262500J0D01*
G01*
X149237500Y-101185000D01*
G75*
G02*
X149500000Y-101447500I0J-262500D01*
G01*
X149500000Y-101972500D01*
G75*
G02*
X149237500Y-102235000I-262500J0D01*
G01*
G37*
%TD.AperFunction*%
%TO.P,Q2,2*%
%TO.N,Net-(Q2-Pad2)*%
%TA.AperFunction,ComponentPad*%
G36*
G01*
X149237500Y-103505000D02*
X148262500Y-103505000D01*
G75*
G02*
X148000000Y-103242500I0J262500D01*
G01*
X148000000Y-102717500D01*
G75*
G02*
X148262500Y-102455000I262500J0D01*
G01*
X149237500Y-102455000D01*
G75*
G02*
X149500000Y-102717500I0J-262500D01*
G01*
X149500000Y-103242500D01*
G75*
G02*
X149237500Y-103505000I-262500J0D01*
G01*
G37*
%TD.AperFunction*%
%TD*%
%TO.P,Q1,1*%
%TO.N,GND*%
X148750000Y-98270000D03*
%TO.P,Q1,3*%
%TO.N,Net-(Q1-Pad3)*%
%TA.AperFunction,ComponentPad*%
G36*
G01*
X149237500Y-96255000D02*
X148262500Y-96255000D01*
G75*
G02*
X148000000Y-95992500I0J262500D01*
G01*
X148000000Y-95467500D01*
G75*
G02*
X148262500Y-95205000I262500J0D01*
G01*
X149237500Y-95205000D01*
G75*
G02*
X149500000Y-95467500I0J-262500D01*
G01*
X149500000Y-95992500D01*
G75*
G02*
X149237500Y-96255000I-262500J0D01*
G01*
G37*
%TD.AperFunction*%
%TO.P,Q1,2*%
%TO.N,Net-(Q1-Pad2)*%
%TA.AperFunction,ComponentPad*%
G36*
G01*
X149237500Y-97525000D02*
X148262500Y-97525000D01*
G75*
G02*
X148000000Y-97262500I0J262500D01*
G01*
X148000000Y-96737500D01*
G75*
G02*
X148262500Y-96475000I262500J0D01*
G01*
X149237500Y-96475000D01*
G75*
G02*
X149500000Y-96737500I0J-262500D01*
G01*
X149500000Y-97262500D01*
G75*
G02*
X149237500Y-97525000I-262500J0D01*
G01*
G37*
%TD.AperFunction*%
%TD*%
D13*
%TO.P,R18,2*%
%TO.N,Net-(Q6-Pad2)*%
X141688000Y-176790000D03*
D14*
%TO.P,R18,1*%
%TO.N,GND*%
X141688000Y-174250000D03*
%TD*%
D13*
%TO.P,R17,2*%
%TO.N,Net-(Q5-Pad2)*%
X149562000Y-176830000D03*
D14*
%TO.P,R17,1*%
%TO.N,GND*%
X149562000Y-174290000D03*
%TD*%
D13*
%TO.P,R16,2*%
%TO.N,Net-(Q4-Pad2)*%
X153500000Y-176790000D03*
D14*
%TO.P,R16,1*%
%TO.N,GND*%
X153500000Y-174250000D03*
%TD*%
D13*
%TO.P,R15,2*%
%TO.N,5V*%
X137750000Y-176790000D03*
D14*
%TO.P,R15,1*%
%TO.N,Net-(Q6-Pad2)*%
X137750000Y-174250000D03*
%TD*%
D13*
%TO.P,R14,2*%
%TO.N,-12V*%
X153500000Y-161710000D03*
D14*
%TO.P,R14,1*%
%TO.N,Net-(Q5-Pad2)*%
X153500000Y-164250000D03*
%TD*%
D13*
%TO.P,R13,2*%
%TO.N,12V*%
X153500000Y-115460000D03*
D14*
%TO.P,R13,1*%
%TO.N,Net-(Q4-Pad2)*%
X153500000Y-118000000D03*
%TD*%
D13*
%TO.P,R12,2*%
%TO.N,Net-(D6-Pad1)*%
X153500000Y-150540000D03*
D14*
%TO.P,R12,1*%
%TO.N,Net-(Q6-Pad3)*%
X153500000Y-148000000D03*
%TD*%
D13*
%TO.P,R11,2*%
%TO.N,Net-(D5-Pad2)*%
X153500000Y-157540000D03*
D14*
%TO.P,R11,1*%
%TO.N,Net-(Q5-Pad3)*%
X153500000Y-155000000D03*
%TD*%
D13*
%TO.P,R10,2*%
%TO.N,Net-(D4-Pad1)*%
X145625000Y-176790000D03*
D14*
%TO.P,R10,1*%
%TO.N,Net-(Q4-Pad3)*%
X145625000Y-174250000D03*
%TD*%
D13*
%TO.P,R9,2*%
%TO.N,Net-(Q3-Pad2)*%
X153500000Y-121710000D03*
D14*
%TO.P,R9,1*%
%TO.N,GND*%
X153500000Y-124250000D03*
%TD*%
D13*
%TO.P,R8,2*%
%TO.N,Net-(Q2-Pad2)*%
X154000000Y-91540000D03*
D14*
%TO.P,R8,1*%
%TO.N,GND*%
X154000000Y-89000000D03*
%TD*%
D13*
%TO.P,R7,2*%
%TO.N,Net-(Q1-Pad2)*%
X151000000Y-81210000D03*
D14*
%TO.P,R7,1*%
%TO.N,GND*%
X151000000Y-83750000D03*
%TD*%
D13*
%TO.P,R6,2*%
%TO.N,5V*%
X151000000Y-91540000D03*
D14*
%TO.P,R6,1*%
%TO.N,Net-(Q3-Pad2)*%
X151000000Y-89000000D03*
%TD*%
D13*
%TO.P,R5,2*%
%TO.N,-12V*%
X154000000Y-81210000D03*
D14*
%TO.P,R5,1*%
%TO.N,Net-(Q2-Pad2)*%
X154000000Y-83750000D03*
%TD*%
D13*
%TO.P,R4,2*%
%TO.N,12V*%
X148000000Y-81210000D03*
D14*
%TO.P,R4,1*%
%TO.N,Net-(Q1-Pad2)*%
X148000000Y-83750000D03*
%TD*%
D13*
%TO.P,R3,2*%
%TO.N,Net-(D3-Pad1)*%
X154000000Y-105540000D03*
D14*
%TO.P,R3,1*%
%TO.N,Net-(Q3-Pad3)*%
X154000000Y-103000000D03*
%TD*%
D13*
%TO.P,R2,2*%
%TO.N,Net-(D2-Pad2)*%
X154000000Y-98500000D03*
D14*
%TO.P,R2,1*%
%TO.N,Net-(Q2-Pad3)*%
X154000000Y-95960000D03*
%TD*%
D13*
%TO.P,R1,2*%
%TO.N,Net-(D1-Pad1)*%
X148000000Y-91540000D03*
D14*
%TO.P,R1,1*%
%TO.N,Net-(Q1-Pad3)*%
X148000000Y-89000000D03*
%TD*%
D15*
%TO.P,D6,2*%
%TO.N,5V*%
X140000000Y-148750000D03*
D16*
%TO.P,D6,1*%
%TO.N,Net-(D6-Pad1)*%
X137460000Y-148750000D03*
%TD*%
D15*
%TO.P,D5,2*%
%TO.N,Net-(D5-Pad2)*%
X140040000Y-167250000D03*
D16*
%TO.P,D5,1*%
%TO.N,-12V*%
X137500000Y-167250000D03*
%TD*%
D15*
%TO.P,D4,2*%
%TO.N,12V*%
X140040000Y-158000000D03*
D16*
%TO.P,D4,1*%
%TO.N,Net-(D4-Pad1)*%
X137500000Y-158000000D03*
%TD*%
D15*
%TO.P,D3,2*%
%TO.N,5V*%
X140290000Y-116750000D03*
D16*
%TO.P,D3,1*%
%TO.N,Net-(D3-Pad1)*%
X137750000Y-116750000D03*
%TD*%
D15*
%TO.P,D2,2*%
%TO.N,Net-(D2-Pad2)*%
X140040000Y-135250000D03*
D16*
%TO.P,D2,1*%
%TO.N,-12V*%
X137500000Y-135250000D03*
%TD*%
D15*
%TO.P,D1,2*%
%TO.N,12V*%
X140290000Y-126500000D03*
D16*
%TO.P,D1,1*%
%TO.N,Net-(D1-Pad1)*%
X137750000Y-126500000D03*
%TD*%
D17*
%TO.P,U3,8*%
%TO.N,-12V*%
X145464000Y-135030000D03*
%TO.P,U3,7*%
%TO.N,GND*%
X145210000Y-132490000D03*
%TO.P,U3,6*%
X145464000Y-129950000D03*
%TO.P,U3,5*%
X145210000Y-127410000D03*
%TO.P,U3,4*%
%TO.N,12V*%
X145464000Y-124870000D03*
%TO.P,U3,3*%
%TO.N,5V*%
X145210000Y-122330000D03*
%TO.P,U3,8*%
%TO.N,-12V*%
X148004000Y-135030000D03*
%TO.P,U3,7*%
%TO.N,GND*%
X147750000Y-132490000D03*
%TO.P,U3,6*%
X148004000Y-129950000D03*
%TO.P,U3,5*%
X147750000Y-127410000D03*
%TO.P,U3,4*%
%TO.N,12V*%
X148004000Y-124870000D03*
%TO.P,U3,3*%
%TO.N,5V*%
X147750000Y-122330000D03*
%TO.P,U3,2*%
%TO.N,CV*%
X145464000Y-119790000D03*
X148004000Y-119790000D03*
%TO.P,U3,1*%
%TO.N,GATE*%
X145210000Y-117250000D03*
X147750000Y-117250000D03*
%TD*%
%TO.P,U2,8*%
%TO.N,-12V*%
X145214000Y-166950000D03*
%TO.P,U2,7*%
%TO.N,GND*%
X144960000Y-164410000D03*
%TO.P,U2,6*%
X145214000Y-161870000D03*
%TO.P,U2,5*%
X144960000Y-159330000D03*
%TO.P,U2,4*%
%TO.N,12V*%
X145214000Y-156790000D03*
%TO.P,U2,3*%
%TO.N,5V*%
X144960000Y-154250000D03*
%TO.P,U2,8*%
%TO.N,-12V*%
X147754000Y-166950000D03*
%TO.P,U2,7*%
%TO.N,GND*%
X147500000Y-164410000D03*
%TO.P,U2,6*%
X147754000Y-161870000D03*
%TO.P,U2,5*%
X147500000Y-159330000D03*
%TO.P,U2,4*%
%TO.N,12V*%
X147754000Y-156790000D03*
%TO.P,U2,3*%
%TO.N,5V*%
X147500000Y-154250000D03*
%TO.P,U2,2*%
%TO.N,CV*%
X145214000Y-151710000D03*
X147754000Y-151710000D03*
%TO.P,U2,1*%
%TO.N,GATE*%
X144960000Y-149170000D03*
X147500000Y-149170000D03*
%TD*%
%TO.P,U1,8*%
%TO.N,Net-(F3-Pad2)*%
X142286000Y-100780000D03*
%TO.P,U1,7*%
%TO.N,GND*%
X142540000Y-98240000D03*
%TO.P,U1,6*%
X142286000Y-95700000D03*
%TO.P,U1,5*%
X142540000Y-93160000D03*
%TO.P,U1,4*%
%TO.N,Net-(F1-Pad2)*%
X142286000Y-90620000D03*
%TO.P,U1,3*%
%TO.N,Net-(F2-Pad2)*%
X142540000Y-88080000D03*
%TO.P,U1,8*%
%TO.N,Net-(F3-Pad2)*%
X139746000Y-100780000D03*
%TO.P,U1,7*%
%TO.N,GND*%
X140000000Y-98240000D03*
%TO.P,U1,6*%
X139746000Y-95700000D03*
%TO.P,U1,5*%
X140000000Y-93160000D03*
%TO.P,U1,4*%
%TO.N,Net-(F1-Pad2)*%
X139746000Y-90620000D03*
%TO.P,U1,3*%
%TO.N,Net-(F2-Pad2)*%
X140000000Y-88080000D03*
%TO.P,U1,2*%
%TO.N,CV*%
X142286000Y-85540000D03*
X139746000Y-85540000D03*
%TO.P,U1,1*%
%TO.N,GATE*%
X142540000Y-83000000D03*
X140000000Y-83000000D03*
%TD*%
%TO.P,F3,2*%
%TO.N,Net-(F3-Pad2)*%
%TA.AperFunction,SMDPad,CuDef*%
G36*
G01*
X138225000Y-110375000D02*
X138225000Y-111625000D01*
G75*
G02*
X137975000Y-111875000I-250000J0D01*
G01*
X137050000Y-111875000D01*
G75*
G02*
X136800000Y-111625000I0J250000D01*
G01*
X136800000Y-110375000D01*
G75*
G02*
X137050000Y-110125000I250000J0D01*
G01*
X137975000Y-110125000D01*
G75*
G02*
X138225000Y-110375000I0J-250000D01*
G01*
G37*
%TD.AperFunction*%
%TO.P,F3,1*%
%TO.N,-12V*%
%TA.AperFunction,SMDPad,CuDef*%
G36*
G01*
X141200000Y-110375000D02*
X141200000Y-111625000D01*
G75*
G02*
X140950000Y-111875000I-250000J0D01*
G01*
X140025000Y-111875000D01*
G75*
G02*
X139775000Y-111625000I0J250000D01*
G01*
X139775000Y-110375000D01*
G75*
G02*
X140025000Y-110125000I250000J0D01*
G01*
X140950000Y-110125000D01*
G75*
G02*
X141200000Y-110375000I0J-250000D01*
G01*
G37*
%TD.AperFunction*%
%TD*%
%TO.P,F2,2*%
%TO.N,Net-(F2-Pad2)*%
%TA.AperFunction,SMDPad,CuDef*%
G36*
G01*
X138237000Y-107625000D02*
X138237000Y-108875000D01*
G75*
G02*
X137987000Y-109125000I-250000J0D01*
G01*
X137062000Y-109125000D01*
G75*
G02*
X136812000Y-108875000I0J250000D01*
G01*
X136812000Y-107625000D01*
G75*
G02*
X137062000Y-107375000I250000J0D01*
G01*
X137987000Y-107375000D01*
G75*
G02*
X138237000Y-107625000I0J-250000D01*
G01*
G37*
%TD.AperFunction*%
%TO.P,F2,1*%
%TO.N,5V*%
%TA.AperFunction,SMDPad,CuDef*%
G36*
G01*
X141212000Y-107625000D02*
X141212000Y-108875000D01*
G75*
G02*
X140962000Y-109125000I-250000J0D01*
G01*
X140037000Y-109125000D01*
G75*
G02*
X139787000Y-108875000I0J250000D01*
G01*
X139787000Y-107625000D01*
G75*
G02*
X140037000Y-107375000I250000J0D01*
G01*
X140962000Y-107375000D01*
G75*
G02*
X141212000Y-107625000I0J-250000D01*
G01*
G37*
%TD.AperFunction*%
%TD*%
%TO.P,F1,2*%
%TO.N,Net-(F1-Pad2)*%
%TA.AperFunction,SMDPad,CuDef*%
G36*
G01*
X138225000Y-104625000D02*
X138225000Y-105875000D01*
G75*
G02*
X137975000Y-106125000I-250000J0D01*
G01*
X137050000Y-106125000D01*
G75*
G02*
X136800000Y-105875000I0J250000D01*
G01*
X136800000Y-104625000D01*
G75*
G02*
X137050000Y-104375000I250000J0D01*
G01*
X137975000Y-104375000D01*
G75*
G02*
X138225000Y-104625000I0J-250000D01*
G01*
G37*
%TD.AperFunction*%
%TO.P,F1,1*%
%TO.N,12V*%
%TA.AperFunction,SMDPad,CuDef*%
G36*
G01*
X141200000Y-104625000D02*
X141200000Y-105875000D01*
G75*
G02*
X140950000Y-106125000I-250000J0D01*
G01*
X140025000Y-106125000D01*
G75*
G02*
X139775000Y-105875000I0J250000D01*
G01*
X139775000Y-104625000D01*
G75*
G02*
X140025000Y-104375000I250000J0D01*
G01*
X140950000Y-104375000D01*
G75*
G02*
X141200000Y-104625000I0J-250000D01*
G01*
G37*
%TD.AperFunction*%
%TD*%
D18*
%TO.N,Net-(D3-Pad1)*%
X146398500Y-108500500D03*
%TD*%
D19*
%TO.N,12V*%
X140487500Y-105250000D02*
X139455700Y-106281800D01*
X139455700Y-106281800D02*
X139455700Y-109145200D01*
X139455700Y-109145200D02*
X138960600Y-109640300D01*
X138960600Y-109640300D02*
X138960600Y-111461400D01*
X138960600Y-111461400D02*
X136524600Y-113897400D01*
X136524600Y-113897400D02*
X136524600Y-127564000D01*
X136524600Y-127564000D02*
X136695100Y-127734500D01*
X136695100Y-127734500D02*
X139055500Y-127734500D01*
X139055500Y-127734500D02*
X140290000Y-126500000D01*
X148000000Y-82335300D02*
X147718700Y-82335300D01*
X147718700Y-82335300D02*
X145558700Y-84495300D01*
X145558700Y-84495300D02*
X145558700Y-100178800D01*
X145558700Y-100178800D02*
X140487500Y-105250000D01*
X145464000Y-124870000D02*
X143834000Y-126500000D01*
X143834000Y-126500000D02*
X140290000Y-126500000D01*
X148000000Y-81210000D02*
X148000000Y-82335300D01*
X148004000Y-124870000D02*
X145464000Y-124870000D01*
%TO.N,-12V*%
X152175700Y-87829500D02*
X152175700Y-83943200D01*
X152175700Y-83943200D02*
X153783600Y-82335300D01*
X153783600Y-82335300D02*
X154000000Y-82335300D01*
X140487500Y-111000000D02*
X146357200Y-105130300D01*
X146357200Y-105130300D02*
X146357200Y-91526200D01*
X146357200Y-91526200D02*
X147645700Y-90237700D01*
X147645700Y-90237700D02*
X148409400Y-90237700D01*
X148409400Y-90237700D02*
X149500100Y-89147000D01*
X149500100Y-89147000D02*
X149500100Y-88899900D01*
X149500100Y-88899900D02*
X150570500Y-87829500D01*
X150570500Y-87829500D02*
X152175700Y-87829500D01*
X152175700Y-87829500D02*
X152175700Y-100257700D01*
X152175700Y-100257700D02*
X151225100Y-101208300D01*
X151225100Y-101208300D02*
X151225100Y-131808900D01*
X151225100Y-131808900D02*
X148004000Y-135030000D01*
X154000000Y-81210000D02*
X154000000Y-82335300D01*
X137500000Y-135250000D02*
X138725300Y-135250000D01*
X145464000Y-135030000D02*
X144458700Y-134024700D01*
X144458700Y-134024700D02*
X139491000Y-134024700D01*
X139491000Y-134024700D02*
X138725300Y-134790400D01*
X138725300Y-134790400D02*
X138725300Y-135250000D01*
X148004000Y-135030000D02*
X145464000Y-135030000D01*
%TO.N,5V*%
X140499500Y-108250000D02*
X140499500Y-109056600D01*
X140499500Y-109056600D02*
X139425700Y-110130400D01*
X139425700Y-110130400D02*
X139425700Y-115885700D01*
X139425700Y-115885700D02*
X140290000Y-116750000D01*
X137750000Y-176790000D02*
X137750000Y-175664700D01*
X140000000Y-148750000D02*
X136232200Y-152517800D01*
X136232200Y-152517800D02*
X136232200Y-174428200D01*
X136232200Y-174428200D02*
X137468700Y-175664700D01*
X137468700Y-175664700D02*
X137750000Y-175664700D01*
X147750000Y-122330000D02*
X150533700Y-119546300D01*
X150533700Y-119546300D02*
X150533700Y-93131600D01*
X150533700Y-93131600D02*
X151000000Y-92665300D01*
X145210000Y-122330000D02*
X147750000Y-122330000D01*
X151000000Y-91540000D02*
X151000000Y-92665300D01*
%TO.N,GATE*%
X147750000Y-117250000D02*
X145210000Y-117250000D01*
%TO.N,GND*%
X148750000Y-110250000D02*
X147674700Y-110250000D01*
X147674700Y-110250000D02*
X147623900Y-110199200D01*
X147623900Y-110199200D02*
X147623900Y-104300800D01*
X147623900Y-104300800D02*
X147674700Y-104250000D01*
X148750000Y-104250000D02*
X147674700Y-104250000D01*
X148750000Y-98270000D02*
X148750000Y-99120300D01*
X148750000Y-99120300D02*
X147623900Y-100246400D01*
X147623900Y-100246400D02*
X147623900Y-104199200D01*
X147623900Y-104199200D02*
X147674700Y-104250000D01*
X142540000Y-93160000D02*
X144252600Y-91447400D01*
X144252600Y-91447400D02*
X144252600Y-83355000D01*
X144252600Y-83355000D02*
X147578700Y-80028900D01*
X147578700Y-80028900D02*
X148487700Y-80028900D01*
X148487700Y-80028900D02*
X149585400Y-81126600D01*
X149585400Y-81126600D02*
X149585400Y-82335400D01*
X149585400Y-82335400D02*
X151000000Y-83750000D01*
X142286000Y-93414000D02*
X142540000Y-93160000D01*
X147500000Y-161870000D02*
X147754000Y-161870000D01*
X145214000Y-161870000D02*
X147500000Y-161870000D01*
X147500000Y-161870000D02*
X147500000Y-164410000D01*
X147500000Y-164410000D02*
X149562000Y-166472000D01*
X149562000Y-166472000D02*
X149562000Y-174290000D01*
X145214000Y-159330000D02*
X145214000Y-161870000D01*
X137750000Y-141750000D02*
X137750000Y-140674700D01*
X143750000Y-140674700D02*
X143697600Y-140622300D01*
X143697600Y-140622300D02*
X137802400Y-140622300D01*
X137802400Y-140622300D02*
X137750000Y-140674700D01*
X143750000Y-140786800D02*
X143750000Y-140674700D01*
X143750000Y-141750000D02*
X143750000Y-140786800D01*
X145214000Y-159330000D02*
X147500000Y-159330000D01*
X144960000Y-159330000D02*
X145214000Y-159330000D01*
X143750000Y-141750000D02*
X143750000Y-158120000D01*
X143750000Y-158120000D02*
X144960000Y-159330000D01*
X142286000Y-95700000D02*
X142540000Y-95954000D01*
X142540000Y-95954000D02*
X142540000Y-98240000D01*
X147750000Y-132490000D02*
X145210000Y-132490000D01*
X149710000Y-141750000D02*
X148859700Y-141750000D01*
X143750000Y-140674700D02*
X143753500Y-140671200D01*
X143753500Y-140671200D02*
X147780900Y-140671200D01*
X147780900Y-140671200D02*
X148859700Y-141750000D01*
X140000000Y-98240000D02*
X142540000Y-98240000D01*
X145210000Y-127410000D02*
X147750000Y-127410000D01*
X147750000Y-130077000D02*
X145591000Y-130077000D01*
X145591000Y-130077000D02*
X145464000Y-129950000D01*
X148004000Y-129950000D02*
X147877000Y-130077000D01*
X147877000Y-130077000D02*
X147750000Y-130077000D01*
X147750000Y-130077000D02*
X147750000Y-132490000D01*
X140254000Y-93414000D02*
X142286000Y-93414000D01*
X140000000Y-93160000D02*
X140254000Y-93414000D01*
X140254000Y-93414000D02*
X139746000Y-93922000D01*
X139746000Y-93922000D02*
X139746000Y-95700000D01*
X142286000Y-93414000D02*
X142286000Y-95700000D01*
X147750000Y-127410000D02*
X148004000Y-127664000D01*
X148004000Y-127664000D02*
X148004000Y-129950000D01*
%TO.N,Net-(D1-Pad1)*%
X137750000Y-126500000D02*
X137750000Y-123046000D01*
X137750000Y-123046000D02*
X147123800Y-113672200D01*
X147123800Y-113672200D02*
X147123800Y-93541500D01*
X147123800Y-93541500D02*
X148000000Y-92665300D01*
X148000000Y-91540000D02*
X148000000Y-92665300D01*
%TO.N,Net-(D2-Pad2)*%
X154000000Y-98500000D02*
X154000000Y-99625300D01*
X140040000Y-135250000D02*
X141012800Y-136222800D01*
X141012800Y-136222800D02*
X148473500Y-136222800D01*
X148473500Y-136222800D02*
X151675500Y-133020800D01*
X151675500Y-133020800D02*
X151675500Y-101949800D01*
X151675500Y-101949800D02*
X154000000Y-99625300D01*
%TO.N,Net-(D3-Pad1)*%
X137750000Y-116750000D02*
X138975300Y-116750000D01*
X138975300Y-116750000D02*
X138975300Y-117209500D01*
X138975300Y-117209500D02*
X139763500Y-117997700D01*
X139763500Y-117997700D02*
X140858700Y-117997700D01*
X140858700Y-117997700D02*
X146398500Y-112457900D01*
X146398500Y-112457900D02*
X146398500Y-108500500D01*
%TO.N,Net-(D4-Pad1)*%
X145625000Y-176790000D02*
X145625000Y-175664700D01*
X137500000Y-158000000D02*
X137500000Y-159225300D01*
X137500000Y-159225300D02*
X138725300Y-160450600D01*
X138725300Y-160450600D02*
X138725300Y-168941800D01*
X138725300Y-168941800D02*
X145448200Y-175664700D01*
X145448200Y-175664700D02*
X145625000Y-175664700D01*
%TO.N,Net-(Q2-Pad2)*%
X154000000Y-91540000D02*
X154000000Y-90414700D01*
X154000000Y-83750000D02*
X152874700Y-84875300D01*
X152874700Y-84875300D02*
X152874700Y-89570800D01*
X152874700Y-89570800D02*
X153718600Y-90414700D01*
X153718600Y-90414700D02*
X154000000Y-90414700D01*
%TO.N,Net-(Q3-Pad2)*%
X151000000Y-89000000D02*
X149826500Y-90173500D01*
X149826500Y-90173500D02*
X149826500Y-108269300D01*
X149826500Y-108269300D02*
X149115800Y-108980000D01*
X149115800Y-108980000D02*
X148750000Y-108980000D01*
%TO.N,Net-(Q4-Pad3)*%
X145625000Y-174250000D02*
X142981600Y-171606600D01*
X142981600Y-171606600D02*
X142981600Y-144441600D01*
X142981600Y-144441600D02*
X140290000Y-141750000D01*
%TO.N,Net-(Q4-Pad2)*%
X148771400Y-136673200D02*
X141047900Y-136673200D01*
X141047900Y-136673200D02*
X136821200Y-140899900D01*
X136821200Y-140899900D02*
X136821200Y-142631200D01*
X136821200Y-142631200D02*
X137015400Y-142825400D01*
X137015400Y-142825400D02*
X138436400Y-142825400D01*
X138436400Y-142825400D02*
X139020000Y-142241800D01*
X139020000Y-142241800D02*
X139020000Y-141750000D01*
X153500000Y-118000000D02*
X152177100Y-119322900D01*
X152177100Y-119322900D02*
X152177100Y-133267500D01*
X152177100Y-133267500D02*
X148771400Y-136673200D01*
X153500000Y-175664700D02*
X153781300Y-175664700D01*
X153781300Y-175664700D02*
X154630000Y-174816000D01*
X154630000Y-174816000D02*
X154630000Y-142531800D01*
X154630000Y-142531800D02*
X148771400Y-136673200D01*
X153500000Y-176790000D02*
X153500000Y-175664700D01*
%TO.N,Net-(Q5-Pad3)*%
X146290000Y-141750000D02*
X150023100Y-145483100D01*
X150023100Y-145483100D02*
X150023100Y-151523100D01*
X150023100Y-151523100D02*
X153500000Y-155000000D01*
%TO.N,Net-(Q5-Pad2)*%
X145020000Y-141750000D02*
X145020000Y-144923600D01*
X145020000Y-144923600D02*
X149572800Y-149476400D01*
X149572800Y-149476400D02*
X149572800Y-160322800D01*
X149572800Y-160322800D02*
X153500000Y-164250000D01*
X153500000Y-164250000D02*
X153500000Y-172048100D01*
X153500000Y-172048100D02*
X149843400Y-175704700D01*
X149843400Y-175704700D02*
X149562000Y-175704700D01*
X149562000Y-176830000D02*
X149562000Y-175704700D01*
%TO.N,Net-(F1-Pad2)*%
X139746000Y-90620000D02*
X142286000Y-90620000D01*
X137512500Y-105250000D02*
X137512500Y-92853500D01*
X137512500Y-92853500D02*
X139746000Y-90620000D01*
%TO.N,Net-(F2-Pad2)*%
X140000000Y-88080000D02*
X142540000Y-88080000D01*
X137524500Y-108250000D02*
X136440600Y-107166100D01*
X136440600Y-107166100D02*
X136440600Y-91639400D01*
X136440600Y-91639400D02*
X140000000Y-88080000D01*
%TO.N,Net-(F3-Pad2)*%
X139746000Y-100780000D02*
X139000000Y-101526000D01*
X139000000Y-101526000D02*
X139000000Y-108964000D01*
X139000000Y-108964000D02*
X137512500Y-110451500D01*
X137512500Y-110451500D02*
X137512500Y-111000000D01*
X139746000Y-100780000D02*
X142286000Y-100780000D01*
%TD*%
M02*
