%TF.GenerationSoftware,KiCad,Pcbnew,5.1.9+dfsg1-1~bpo10+1*%
%TF.CreationDate,2021-04-17T11:45:14+01:00*%
%TF.ProjectId,europower,6575726f-706f-4776-9572-2e6b69636164,rev?*%
%TF.SameCoordinates,Original*%
%TF.FileFunction,Soldermask,Top*%
%TF.FilePolarity,Negative*%
%FSLAX46Y46*%
G04 Gerber Fmt 4.6, Leading zero omitted, Abs format (unit mm)*
G04 Created by KiCad (PCBNEW 5.1.9+dfsg1-1~bpo10+1) date 2021-04-17 11:45:14*
%MOMM*%
%LPD*%
G01*
G04 APERTURE LIST*
%ADD10C,0.300000*%
%ADD11O,1.700000X1.700000*%
%ADD12C,1.700000*%
%ADD13C,1.900000*%
%ADD14C,1.800000*%
G04 APERTURE END LIST*
D10*
X148607142Y-66367857D02*
X149107142Y-66367857D01*
X149321428Y-67153571D02*
X148607142Y-67153571D01*
X148607142Y-65653571D01*
X149321428Y-65653571D01*
X149964285Y-65653571D02*
X149964285Y-66867857D01*
X150035714Y-67010714D01*
X150107142Y-67082142D01*
X150250000Y-67153571D01*
X150535714Y-67153571D01*
X150678571Y-67082142D01*
X150750000Y-67010714D01*
X150821428Y-66867857D01*
X150821428Y-65653571D01*
X152392857Y-67153571D02*
X151892857Y-66439285D01*
X151535714Y-67153571D02*
X151535714Y-65653571D01*
X152107142Y-65653571D01*
X152250000Y-65725000D01*
X152321428Y-65796428D01*
X152392857Y-65939285D01*
X152392857Y-66153571D01*
X152321428Y-66296428D01*
X152250000Y-66367857D01*
X152107142Y-66439285D01*
X151535714Y-66439285D01*
X153321428Y-65653571D02*
X153607142Y-65653571D01*
X153750000Y-65725000D01*
X153892857Y-65867857D01*
X153964285Y-66153571D01*
X153964285Y-66653571D01*
X153892857Y-66939285D01*
X153750000Y-67082142D01*
X153607142Y-67153571D01*
X153321428Y-67153571D01*
X153178571Y-67082142D01*
X153035714Y-66939285D01*
X152964285Y-66653571D01*
X152964285Y-66153571D01*
X153035714Y-65867857D01*
X153178571Y-65725000D01*
X153321428Y-65653571D01*
X147785714Y-69703571D02*
X147785714Y-68203571D01*
X148357142Y-68203571D01*
X148500000Y-68275000D01*
X148571428Y-68346428D01*
X148642857Y-68489285D01*
X148642857Y-68703571D01*
X148571428Y-68846428D01*
X148500000Y-68917857D01*
X148357142Y-68989285D01*
X147785714Y-68989285D01*
X149571428Y-68203571D02*
X149857142Y-68203571D01*
X150000000Y-68275000D01*
X150142857Y-68417857D01*
X150214285Y-68703571D01*
X150214285Y-69203571D01*
X150142857Y-69489285D01*
X150000000Y-69632142D01*
X149857142Y-69703571D01*
X149571428Y-69703571D01*
X149428571Y-69632142D01*
X149285714Y-69489285D01*
X149214285Y-69203571D01*
X149214285Y-68703571D01*
X149285714Y-68417857D01*
X149428571Y-68275000D01*
X149571428Y-68203571D01*
X150714285Y-68203571D02*
X151071428Y-69703571D01*
X151357142Y-68632142D01*
X151642857Y-69703571D01*
X152000000Y-68203571D01*
X152571428Y-68917857D02*
X153071428Y-68917857D01*
X153285714Y-69703571D02*
X152571428Y-69703571D01*
X152571428Y-68203571D01*
X153285714Y-68203571D01*
X154785714Y-69703571D02*
X154285714Y-68989285D01*
X153928571Y-69703571D02*
X153928571Y-68203571D01*
X154500000Y-68203571D01*
X154642857Y-68275000D01*
X154714285Y-68346428D01*
X154785714Y-68489285D01*
X154785714Y-68703571D01*
X154714285Y-68846428D01*
X154642857Y-68917857D01*
X154500000Y-68989285D01*
X153928571Y-68989285D01*
%TO.C,Q6*%
G36*
G01*
X149135000Y-142500000D02*
X149135000Y-141000000D01*
G75*
G02*
X149185000Y-140950000I50000J0D01*
G01*
X150235000Y-140950000D01*
G75*
G02*
X150285000Y-141000000I0J-50000D01*
G01*
X150285000Y-142500000D01*
G75*
G02*
X150235000Y-142550000I-50000J0D01*
G01*
X149185000Y-142550000D01*
G75*
G02*
X149135000Y-142500000I0J50000D01*
G01*
G37*
G36*
G01*
X151675000Y-142262500D02*
X151675000Y-141237500D01*
G75*
G02*
X151962500Y-140950000I287500J0D01*
G01*
X152537500Y-140950000D01*
G75*
G02*
X152825000Y-141237500I0J-287500D01*
G01*
X152825000Y-142262500D01*
G75*
G02*
X152537500Y-142550000I-287500J0D01*
G01*
X151962500Y-142550000D01*
G75*
G02*
X151675000Y-142262500I0J287500D01*
G01*
G37*
G36*
G01*
X150405000Y-142262500D02*
X150405000Y-141237500D01*
G75*
G02*
X150692500Y-140950000I287500J0D01*
G01*
X151267500Y-140950000D01*
G75*
G02*
X151555000Y-141237500I0J-287500D01*
G01*
X151555000Y-142262500D01*
G75*
G02*
X151267500Y-142550000I-287500J0D01*
G01*
X150692500Y-142550000D01*
G75*
G02*
X150405000Y-142262500I0J287500D01*
G01*
G37*
%TD*%
%TO.C,Q5*%
G36*
G01*
X143175000Y-142500000D02*
X143175000Y-141000000D01*
G75*
G02*
X143225000Y-140950000I50000J0D01*
G01*
X144275000Y-140950000D01*
G75*
G02*
X144325000Y-141000000I0J-50000D01*
G01*
X144325000Y-142500000D01*
G75*
G02*
X144275000Y-142550000I-50000J0D01*
G01*
X143225000Y-142550000D01*
G75*
G02*
X143175000Y-142500000I0J50000D01*
G01*
G37*
G36*
G01*
X145715000Y-142262500D02*
X145715000Y-141237500D01*
G75*
G02*
X146002500Y-140950000I287500J0D01*
G01*
X146577500Y-140950000D01*
G75*
G02*
X146865000Y-141237500I0J-287500D01*
G01*
X146865000Y-142262500D01*
G75*
G02*
X146577500Y-142550000I-287500J0D01*
G01*
X146002500Y-142550000D01*
G75*
G02*
X145715000Y-142262500I0J287500D01*
G01*
G37*
G36*
G01*
X144445000Y-142262500D02*
X144445000Y-141237500D01*
G75*
G02*
X144732500Y-140950000I287500J0D01*
G01*
X145307500Y-140950000D01*
G75*
G02*
X145595000Y-141237500I0J-287500D01*
G01*
X145595000Y-142262500D01*
G75*
G02*
X145307500Y-142550000I-287500J0D01*
G01*
X144732500Y-142550000D01*
G75*
G02*
X144445000Y-142262500I0J287500D01*
G01*
G37*
%TD*%
%TO.C,Q4*%
G36*
G01*
X137175000Y-142500000D02*
X137175000Y-141000000D01*
G75*
G02*
X137225000Y-140950000I50000J0D01*
G01*
X138275000Y-140950000D01*
G75*
G02*
X138325000Y-141000000I0J-50000D01*
G01*
X138325000Y-142500000D01*
G75*
G02*
X138275000Y-142550000I-50000J0D01*
G01*
X137225000Y-142550000D01*
G75*
G02*
X137175000Y-142500000I0J50000D01*
G01*
G37*
G36*
G01*
X139715000Y-142262500D02*
X139715000Y-141237500D01*
G75*
G02*
X140002500Y-140950000I287500J0D01*
G01*
X140577500Y-140950000D01*
G75*
G02*
X140865000Y-141237500I0J-287500D01*
G01*
X140865000Y-142262500D01*
G75*
G02*
X140577500Y-142550000I-287500J0D01*
G01*
X140002500Y-142550000D01*
G75*
G02*
X139715000Y-142262500I0J287500D01*
G01*
G37*
G36*
G01*
X138445000Y-142262500D02*
X138445000Y-141237500D01*
G75*
G02*
X138732500Y-140950000I287500J0D01*
G01*
X139307500Y-140950000D01*
G75*
G02*
X139595000Y-141237500I0J-287500D01*
G01*
X139595000Y-142262500D01*
G75*
G02*
X139307500Y-142550000I-287500J0D01*
G01*
X138732500Y-142550000D01*
G75*
G02*
X138445000Y-142262500I0J287500D01*
G01*
G37*
%TD*%
%TO.C,Q3*%
G36*
G01*
X149500000Y-110825000D02*
X148000000Y-110825000D01*
G75*
G02*
X147950000Y-110775000I0J50000D01*
G01*
X147950000Y-109725000D01*
G75*
G02*
X148000000Y-109675000I50000J0D01*
G01*
X149500000Y-109675000D01*
G75*
G02*
X149550000Y-109725000I0J-50000D01*
G01*
X149550000Y-110775000D01*
G75*
G02*
X149500000Y-110825000I-50000J0D01*
G01*
G37*
G36*
G01*
X149262500Y-108285000D02*
X148237500Y-108285000D01*
G75*
G02*
X147950000Y-107997500I0J287500D01*
G01*
X147950000Y-107422500D01*
G75*
G02*
X148237500Y-107135000I287500J0D01*
G01*
X149262500Y-107135000D01*
G75*
G02*
X149550000Y-107422500I0J-287500D01*
G01*
X149550000Y-107997500D01*
G75*
G02*
X149262500Y-108285000I-287500J0D01*
G01*
G37*
G36*
G01*
X149262500Y-109555000D02*
X148237500Y-109555000D01*
G75*
G02*
X147950000Y-109267500I0J287500D01*
G01*
X147950000Y-108692500D01*
G75*
G02*
X148237500Y-108405000I287500J0D01*
G01*
X149262500Y-108405000D01*
G75*
G02*
X149550000Y-108692500I0J-287500D01*
G01*
X149550000Y-109267500D01*
G75*
G02*
X149262500Y-109555000I-287500J0D01*
G01*
G37*
%TD*%
%TO.C,Q2*%
G36*
G01*
X149500000Y-104825000D02*
X148000000Y-104825000D01*
G75*
G02*
X147950000Y-104775000I0J50000D01*
G01*
X147950000Y-103725000D01*
G75*
G02*
X148000000Y-103675000I50000J0D01*
G01*
X149500000Y-103675000D01*
G75*
G02*
X149550000Y-103725000I0J-50000D01*
G01*
X149550000Y-104775000D01*
G75*
G02*
X149500000Y-104825000I-50000J0D01*
G01*
G37*
G36*
G01*
X149262500Y-102285000D02*
X148237500Y-102285000D01*
G75*
G02*
X147950000Y-101997500I0J287500D01*
G01*
X147950000Y-101422500D01*
G75*
G02*
X148237500Y-101135000I287500J0D01*
G01*
X149262500Y-101135000D01*
G75*
G02*
X149550000Y-101422500I0J-287500D01*
G01*
X149550000Y-101997500D01*
G75*
G02*
X149262500Y-102285000I-287500J0D01*
G01*
G37*
G36*
G01*
X149262500Y-103555000D02*
X148237500Y-103555000D01*
G75*
G02*
X147950000Y-103267500I0J287500D01*
G01*
X147950000Y-102692500D01*
G75*
G02*
X148237500Y-102405000I287500J0D01*
G01*
X149262500Y-102405000D01*
G75*
G02*
X149550000Y-102692500I0J-287500D01*
G01*
X149550000Y-103267500D01*
G75*
G02*
X149262500Y-103555000I-287500J0D01*
G01*
G37*
%TD*%
%TO.C,Q1*%
G36*
G01*
X149500000Y-98845000D02*
X148000000Y-98845000D01*
G75*
G02*
X147950000Y-98795000I0J50000D01*
G01*
X147950000Y-97745000D01*
G75*
G02*
X148000000Y-97695000I50000J0D01*
G01*
X149500000Y-97695000D01*
G75*
G02*
X149550000Y-97745000I0J-50000D01*
G01*
X149550000Y-98795000D01*
G75*
G02*
X149500000Y-98845000I-50000J0D01*
G01*
G37*
G36*
G01*
X149262500Y-96305000D02*
X148237500Y-96305000D01*
G75*
G02*
X147950000Y-96017500I0J287500D01*
G01*
X147950000Y-95442500D01*
G75*
G02*
X148237500Y-95155000I287500J0D01*
G01*
X149262500Y-95155000D01*
G75*
G02*
X149550000Y-95442500I0J-287500D01*
G01*
X149550000Y-96017500D01*
G75*
G02*
X149262500Y-96305000I-287500J0D01*
G01*
G37*
G36*
G01*
X149262500Y-97575000D02*
X148237500Y-97575000D01*
G75*
G02*
X147950000Y-97287500I0J287500D01*
G01*
X147950000Y-96712500D01*
G75*
G02*
X148237500Y-96425000I287500J0D01*
G01*
X149262500Y-96425000D01*
G75*
G02*
X149550000Y-96712500I0J-287500D01*
G01*
X149550000Y-97287500D01*
G75*
G02*
X149262500Y-97575000I-287500J0D01*
G01*
G37*
%TD*%
D11*
%TO.C,R18*%
X141688000Y-176790000D03*
D12*
X141688000Y-174250000D03*
%TD*%
D11*
%TO.C,R17*%
X149562000Y-176830000D03*
D12*
X149562000Y-174290000D03*
%TD*%
D11*
%TO.C,R16*%
X153500000Y-176790000D03*
D12*
X153500000Y-174250000D03*
%TD*%
D11*
%TO.C,R15*%
X137750000Y-176790000D03*
D12*
X137750000Y-174250000D03*
%TD*%
D11*
%TO.C,R14*%
X153500000Y-161710000D03*
D12*
X153500000Y-164250000D03*
%TD*%
D11*
%TO.C,R13*%
X153500000Y-115460000D03*
D12*
X153500000Y-118000000D03*
%TD*%
D11*
%TO.C,R12*%
X153500000Y-150540000D03*
D12*
X153500000Y-148000000D03*
%TD*%
D11*
%TO.C,R11*%
X153500000Y-157540000D03*
D12*
X153500000Y-155000000D03*
%TD*%
D11*
%TO.C,R10*%
X145625000Y-176790000D03*
D12*
X145625000Y-174250000D03*
%TD*%
D11*
%TO.C,R9*%
X153500000Y-121710000D03*
D12*
X153500000Y-124250000D03*
%TD*%
D11*
%TO.C,R8*%
X154000000Y-91540000D03*
D12*
X154000000Y-89000000D03*
%TD*%
D11*
%TO.C,R7*%
X151000000Y-81210000D03*
D12*
X151000000Y-83750000D03*
%TD*%
D11*
%TO.C,R6*%
X151000000Y-91540000D03*
D12*
X151000000Y-89000000D03*
%TD*%
D11*
%TO.C,R5*%
X154000000Y-81210000D03*
D12*
X154000000Y-83750000D03*
%TD*%
D11*
%TO.C,R4*%
X148000000Y-81210000D03*
D12*
X148000000Y-83750000D03*
%TD*%
D11*
%TO.C,R3*%
X154000000Y-105540000D03*
D12*
X154000000Y-103000000D03*
%TD*%
D11*
%TO.C,R2*%
X154000000Y-98500000D03*
D12*
X154000000Y-95960000D03*
%TD*%
D11*
%TO.C,R1*%
X148000000Y-91540000D03*
D12*
X148000000Y-89000000D03*
%TD*%
D13*
%TO.C,D6*%
X140000000Y-148750000D03*
G36*
G01*
X136510000Y-149650000D02*
X136510000Y-147850000D01*
G75*
G02*
X136560000Y-147800000I50000J0D01*
G01*
X138360000Y-147800000D01*
G75*
G02*
X138410000Y-147850000I0J-50000D01*
G01*
X138410000Y-149650000D01*
G75*
G02*
X138360000Y-149700000I-50000J0D01*
G01*
X136560000Y-149700000D01*
G75*
G02*
X136510000Y-149650000I0J50000D01*
G01*
G37*
%TD*%
%TO.C,D5*%
X140040000Y-167250000D03*
G36*
G01*
X136550000Y-168150000D02*
X136550000Y-166350000D01*
G75*
G02*
X136600000Y-166300000I50000J0D01*
G01*
X138400000Y-166300000D01*
G75*
G02*
X138450000Y-166350000I0J-50000D01*
G01*
X138450000Y-168150000D01*
G75*
G02*
X138400000Y-168200000I-50000J0D01*
G01*
X136600000Y-168200000D01*
G75*
G02*
X136550000Y-168150000I0J50000D01*
G01*
G37*
%TD*%
%TO.C,D4*%
X140040000Y-158000000D03*
G36*
G01*
X136550000Y-158900000D02*
X136550000Y-157100000D01*
G75*
G02*
X136600000Y-157050000I50000J0D01*
G01*
X138400000Y-157050000D01*
G75*
G02*
X138450000Y-157100000I0J-50000D01*
G01*
X138450000Y-158900000D01*
G75*
G02*
X138400000Y-158950000I-50000J0D01*
G01*
X136600000Y-158950000D01*
G75*
G02*
X136550000Y-158900000I0J50000D01*
G01*
G37*
%TD*%
%TO.C,D3*%
X140290000Y-116750000D03*
G36*
G01*
X136800000Y-117650000D02*
X136800000Y-115850000D01*
G75*
G02*
X136850000Y-115800000I50000J0D01*
G01*
X138650000Y-115800000D01*
G75*
G02*
X138700000Y-115850000I0J-50000D01*
G01*
X138700000Y-117650000D01*
G75*
G02*
X138650000Y-117700000I-50000J0D01*
G01*
X136850000Y-117700000D01*
G75*
G02*
X136800000Y-117650000I0J50000D01*
G01*
G37*
%TD*%
%TO.C,D2*%
X140040000Y-135250000D03*
G36*
G01*
X136550000Y-136150000D02*
X136550000Y-134350000D01*
G75*
G02*
X136600000Y-134300000I50000J0D01*
G01*
X138400000Y-134300000D01*
G75*
G02*
X138450000Y-134350000I0J-50000D01*
G01*
X138450000Y-136150000D01*
G75*
G02*
X138400000Y-136200000I-50000J0D01*
G01*
X136600000Y-136200000D01*
G75*
G02*
X136550000Y-136150000I0J50000D01*
G01*
G37*
%TD*%
%TO.C,D1*%
X140290000Y-126500000D03*
G36*
G01*
X136800000Y-127400000D02*
X136800000Y-125600000D01*
G75*
G02*
X136850000Y-125550000I50000J0D01*
G01*
X138650000Y-125550000D01*
G75*
G02*
X138700000Y-125600000I0J-50000D01*
G01*
X138700000Y-127400000D01*
G75*
G02*
X138650000Y-127450000I-50000J0D01*
G01*
X136850000Y-127450000D01*
G75*
G02*
X136800000Y-127400000I0J50000D01*
G01*
G37*
%TD*%
D14*
%TO.C,U3*%
X145464000Y-135030000D03*
X145210000Y-132490000D03*
X145464000Y-129950000D03*
X145210000Y-127410000D03*
X145464000Y-124870000D03*
X145210000Y-122330000D03*
X148004000Y-135030000D03*
X147750000Y-132490000D03*
X148004000Y-129950000D03*
X147750000Y-127410000D03*
X148004000Y-124870000D03*
X147750000Y-122330000D03*
X145464000Y-119790000D03*
X148004000Y-119790000D03*
X145210000Y-117250000D03*
X147750000Y-117250000D03*
%TD*%
%TO.C,U2*%
X145214000Y-166950000D03*
X144960000Y-164410000D03*
X145214000Y-161870000D03*
X144960000Y-159330000D03*
X145214000Y-156790000D03*
X144960000Y-154250000D03*
X147754000Y-166950000D03*
X147500000Y-164410000D03*
X147754000Y-161870000D03*
X147500000Y-159330000D03*
X147754000Y-156790000D03*
X147500000Y-154250000D03*
X145214000Y-151710000D03*
X147754000Y-151710000D03*
X144960000Y-149170000D03*
X147500000Y-149170000D03*
%TD*%
%TO.C,U1*%
X142286000Y-100780000D03*
X142540000Y-98240000D03*
X142286000Y-95700000D03*
X142540000Y-93160000D03*
X142286000Y-90620000D03*
X142540000Y-88080000D03*
X139746000Y-100780000D03*
X140000000Y-98240000D03*
X139746000Y-95700000D03*
X140000000Y-93160000D03*
X139746000Y-90620000D03*
X140000000Y-88080000D03*
X142286000Y-85540000D03*
X139746000Y-85540000D03*
X142540000Y-83000000D03*
X140000000Y-83000000D03*
%TD*%
%TO.C,F3*%
G36*
G01*
X138275000Y-110342543D02*
X138275000Y-111657457D01*
G75*
G02*
X138007457Y-111925000I-267543J0D01*
G01*
X137017543Y-111925000D01*
G75*
G02*
X136750000Y-111657457I0J267543D01*
G01*
X136750000Y-110342543D01*
G75*
G02*
X137017543Y-110075000I267543J0D01*
G01*
X138007457Y-110075000D01*
G75*
G02*
X138275000Y-110342543I0J-267543D01*
G01*
G37*
G36*
G01*
X141250000Y-110342543D02*
X141250000Y-111657457D01*
G75*
G02*
X140982457Y-111925000I-267543J0D01*
G01*
X139992543Y-111925000D01*
G75*
G02*
X139725000Y-111657457I0J267543D01*
G01*
X139725000Y-110342543D01*
G75*
G02*
X139992543Y-110075000I267543J0D01*
G01*
X140982457Y-110075000D01*
G75*
G02*
X141250000Y-110342543I0J-267543D01*
G01*
G37*
%TD*%
%TO.C,F2*%
G36*
G01*
X138287000Y-107592543D02*
X138287000Y-108907457D01*
G75*
G02*
X138019457Y-109175000I-267543J0D01*
G01*
X137029543Y-109175000D01*
G75*
G02*
X136762000Y-108907457I0J267543D01*
G01*
X136762000Y-107592543D01*
G75*
G02*
X137029543Y-107325000I267543J0D01*
G01*
X138019457Y-107325000D01*
G75*
G02*
X138287000Y-107592543I0J-267543D01*
G01*
G37*
G36*
G01*
X141262000Y-107592543D02*
X141262000Y-108907457D01*
G75*
G02*
X140994457Y-109175000I-267543J0D01*
G01*
X140004543Y-109175000D01*
G75*
G02*
X139737000Y-108907457I0J267543D01*
G01*
X139737000Y-107592543D01*
G75*
G02*
X140004543Y-107325000I267543J0D01*
G01*
X140994457Y-107325000D01*
G75*
G02*
X141262000Y-107592543I0J-267543D01*
G01*
G37*
%TD*%
%TO.C,F1*%
G36*
G01*
X138275000Y-104592543D02*
X138275000Y-105907457D01*
G75*
G02*
X138007457Y-106175000I-267543J0D01*
G01*
X137017543Y-106175000D01*
G75*
G02*
X136750000Y-105907457I0J267543D01*
G01*
X136750000Y-104592543D01*
G75*
G02*
X137017543Y-104325000I267543J0D01*
G01*
X138007457Y-104325000D01*
G75*
G02*
X138275000Y-104592543I0J-267543D01*
G01*
G37*
G36*
G01*
X141250000Y-104592543D02*
X141250000Y-105907457D01*
G75*
G02*
X140982457Y-106175000I-267543J0D01*
G01*
X139992543Y-106175000D01*
G75*
G02*
X139725000Y-105907457I0J267543D01*
G01*
X139725000Y-104592543D01*
G75*
G02*
X139992543Y-104325000I267543J0D01*
G01*
X140982457Y-104325000D01*
G75*
G02*
X141250000Y-104592543I0J-267543D01*
G01*
G37*
%TD*%
M02*
